<?xml version="1.0" encoding="UTF-8" standalone="no"?>
<!DOCTYPE svg PUBLIC "-//W3C//DTD SVG 1.1//EN"
 "http://www.w3.org/Graphics/SVG/1.1/DTD/svg11.dtd">
<!-- Generated by graphviz version 2.50.0 (0)
 -->
<!-- Pages: 1 -->
<svg width="460pt" height="435pt"
 viewBox="0.00 0.00 460.50 435.39" xmlns="http://www.w3.org/2000/svg" xmlns:xlink="http://www.w3.org/1999/xlink">
<g id="graph0" class="graph" transform="scale(1 1) rotate(0) translate(4 431.39)">
<polygon fill="white" stroke="transparent" points="-4,4 -4,-431.39 456.5,-431.39 456.5,4 -4,4"/>
<!-- fake -->
<g id="node1" class="node">
<title>fake</title>
</g>
<!-- [&#39;t0&#39;] -->
<g id="node9" class="node">
<title>[&#39;t0&#39;]</title>
<ellipse fill="none" stroke="black" cx="32.5" cy="-306.19" rx="32.49" ry="18"/>
<text text-anchor="middle" x="32.5" y="-302.49" font-family="Times,serif" font-size="14.00">[&#39;t0&#39;]</text>
</g>
<!-- fake&#45;&gt;[&#39;t0&#39;] -->
<g id="edge1" class="edge">
<title>fake&#45;&gt;[&#39;t0&#39;]</title>
<path fill="none" stroke="black" stroke-width="2" d="M32.5,-383.22C32.5,-369.65 32.5,-350.42 32.5,-334.69"/>
<polygon fill="black" stroke="black" stroke-width="2" points="36,-334.48 32.5,-324.48 29,-334.48 36,-334.48"/>
</g>
<!-- sink -->
<g id="node2" class="node">
<title>sink</title>
<ellipse fill="none" stroke="black" cx="309.5" cy="-18" rx="29.8" ry="18"/>
<text text-anchor="middle" x="309.5" y="-14.3" font-family="Times,serif" font-size="14.00">sink</text>
</g>
<!-- sink&#45;&gt;sink -->
<g id="edge15" class="edge">
<title>sink&#45;&gt;sink</title>
<path fill="none" stroke="black" d="M339.43,-20.62C349.41,-20.62 357.39,-19.75 357.39,-18 357.39,-16.91 354.28,-16.15 349.5,-15.74"/>
<polygon fill="black" stroke="black" points="349.55,-12.24 339.43,-15.38 349.3,-19.24 349.55,-12.24"/>
<text text-anchor="middle" x="361.89" y="-14.3" font-family="Times,serif" font-size="14.00">a</text>
</g>
<!-- sink&#45;&gt;sink -->
<g id="edge16" class="edge">
<title>sink&#45;&gt;sink</title>
<path fill="none" stroke="black" d="M338.63,-22.83C357.36,-24.1 375.39,-22.48 375.39,-18 375.39,-14.36 363.49,-12.61 348.98,-12.76"/>
<polygon fill="black" stroke="black" points="348.49,-9.28 338.63,-13.17 348.76,-16.27 348.49,-9.28"/>
<text text-anchor="middle" x="379.39" y="-14.3" font-family="Times,serif" font-size="14.00">c</text>
</g>
<!-- sink&#45;&gt;sink -->
<g id="edge17" class="edge">
<title>sink&#45;&gt;sink</title>
<path fill="none" stroke="black" d="M337.86,-24.37C364.5,-27.67 393.39,-25.55 393.39,-18 393.39,-11.4 371.27,-8.95 347.9,-10.65"/>
<polygon fill="black" stroke="black" points="347.47,-7.17 337.86,-11.63 348.16,-14.14 347.47,-7.17"/>
<text text-anchor="middle" x="398.39" y="-14.3" font-family="Times,serif" font-size="14.00">b</text>
</g>
<!-- t2 -->
<g id="node3" class="node">
<title>t2</title>
<ellipse fill="none" stroke="black" cx="176.5" cy="-401.29" rx="27" ry="18"/>
<text text-anchor="middle" x="176.5" y="-397.59" font-family="Times,serif" font-size="14.00">t2</text>
</g>
<!-- t2&#45;&gt;sink -->
<g id="edge18" class="edge">
<title>t2&#45;&gt;sink</title>
<path fill="none" stroke="black" d="M156.16,-389.41C131.3,-374.47 92.5,-345.07 92.5,-307.19 92.5,-307.19 92.5,-307.19 92.5,-110.8 92.5,-35.01 206.17,-20.84 268.97,-18.79"/>
<polygon fill="black" stroke="black" points="269.41,-22.28 279.32,-18.55 269.24,-15.29 269.41,-22.28"/>
<text text-anchor="middle" x="96.5" y="-208.69" font-family="Times,serif" font-size="14.00">c</text>
</g>
<!-- t1 -->
<g id="node7" class="node">
<title>t1</title>
<ellipse fill="none" stroke="black" cx="242.5" cy="-306.19" rx="27" ry="18"/>
<text text-anchor="middle" x="242.5" y="-302.49" font-family="Times,serif" font-size="14.00">t1</text>
</g>
<!-- t2&#45;&gt;t1 -->
<g id="edge6" class="edge">
<title>t2&#45;&gt;t1</title>
<path fill="none" stroke="black" d="M184.48,-383.87C190.63,-371.87 199.71,-355.44 209.5,-342.19 212.85,-337.66 216.72,-333.08 220.62,-328.8"/>
<polygon fill="black" stroke="black" points="223.21,-331.16 227.54,-321.49 218.12,-326.35 223.21,-331.16"/>
<text text-anchor="middle" x="214.5" y="-345.99" font-family="Times,serif" font-size="14.00">b</text>
</g>
<!-- t4 -->
<g id="node8" class="node">
<title>t4</title>
<ellipse fill="none" stroke="black" cx="229.5" cy="-212.39" rx="20.63" ry="20.63"/>
<ellipse fill="none" stroke="black" cx="229.5" cy="-212.39" rx="24.6" ry="24.6"/>
<text text-anchor="middle" x="229.5" y="-208.69" font-family="Times,serif" font-size="14.00">t4</text>
</g>
<!-- t2&#45;&gt;t4 -->
<g id="edge7" class="edge">
<title>t2&#45;&gt;t4</title>
<path fill="none" stroke="black" d="M178.5,-383.3C181.38,-361.1 187.49,-321.16 197.5,-288.19 202.02,-273.29 208.58,-257.36 214.59,-244.04"/>
<polygon fill="black" stroke="black" points="217.81,-245.4 218.83,-234.85 211.46,-242.47 217.81,-245.4"/>
<text text-anchor="middle" x="202" y="-302.49" font-family="Times,serif" font-size="14.00">a</text>
</g>
<!-- t0 -->
<g id="node4" class="node">
<title>t0</title>
<ellipse fill="none" stroke="black" cx="234.5" cy="-111.8" rx="20.63" ry="20.63"/>
<ellipse fill="none" stroke="black" cx="234.5" cy="-111.8" rx="24.6" ry="24.6"/>
<text text-anchor="middle" x="234.5" y="-108.1" font-family="Times,serif" font-size="14.00">t0</text>
</g>
<!-- t0&#45;&gt;sink -->
<g id="edge19" class="edge">
<title>t0&#45;&gt;sink</title>
<path fill="none" stroke="black" d="M250.04,-91.78C261.77,-77.42 277.92,-57.65 290.43,-42.33"/>
<polygon fill="black" stroke="black" points="293.34,-44.31 296.96,-34.35 287.92,-39.88 293.34,-44.31"/>
<text text-anchor="middle" x="282.5" y="-57.8" font-family="Times,serif" font-size="14.00">c</text>
</g>
<!-- t0&#45;&gt;t2 -->
<g id="edge3" class="edge">
<title>t0&#45;&gt;t2</title>
<path fill="none" stroke="black" d="M214.65,-127.39C205.72,-134.75 195.61,-144.3 188.5,-154.6 179.54,-167.57 178.44,-172.11 175.5,-187.6 163.01,-253.37 168.71,-332.66 173.1,-373.33"/>
<polygon fill="black" stroke="black" points="169.62,-373.73 174.23,-383.27 176.58,-372.94 169.62,-373.73"/>
<text text-anchor="middle" x="172" y="-258.99" font-family="Times,serif" font-size="14.00">a</text>
</g>
<!-- t0&#45;&gt;t1 -->
<g id="edge2" class="edge">
<title>t0&#45;&gt;t1</title>
<path fill="none" stroke="black" d="M218.24,-130.92C206.59,-145.19 191.89,-166.17 185.5,-187.6 179.19,-208.72 177.96,-216.48 185.5,-237.19 192.17,-255.54 206.2,-272.38 218.67,-284.71"/>
<polygon fill="black" stroke="black" points="216.48,-287.46 226.15,-291.78 221.29,-282.37 216.48,-287.46"/>
<text text-anchor="middle" x="190.5" y="-208.69" font-family="Times,serif" font-size="14.00">b</text>
</g>
<!-- a0 -->
<g id="node5" class="node">
<title>a0</title>
<ellipse fill="none" stroke="black" cx="398.5" cy="-401.29" rx="22.18" ry="22.18"/>
<ellipse fill="none" stroke="black" cx="398.5" cy="-401.29" rx="26.2" ry="26.2"/>
<text text-anchor="middle" x="398.5" y="-397.59" font-family="Times,serif" font-size="14.00">a0</text>
</g>
<!-- a0&#45;&gt;sink -->
<g id="edge21" class="edge">
<title>a0&#45;&gt;sink</title>
<path fill="none" stroke="black" d="M398.5,-375C398.5,-356.28 398.5,-330.14 398.5,-307.19 398.5,-307.19 398.5,-307.19 398.5,-110.8 398.5,-76.84 366.72,-50.69 341.14,-35.14"/>
<polygon fill="black" stroke="black" points="342.82,-32.07 332.42,-30.09 339.32,-38.13 342.82,-32.07"/>
<text text-anchor="middle" x="402.5" y="-208.69" font-family="Times,serif" font-size="14.00">c</text>
</g>
<!-- a0&#45;&gt;sink -->
<g id="edge22" class="edge">
<title>a0&#45;&gt;sink</title>
<path fill="none" stroke="black" d="M414.38,-380.13C426.99,-362.09 442.5,-334.37 442.5,-307.19 442.5,-307.19 442.5,-307.19 442.5,-110.8 442.5,-64.21 386.54,-39.44 347.22,-27.78"/>
<polygon fill="black" stroke="black" points="347.95,-24.35 337.38,-25.03 346.07,-31.09 347.95,-24.35"/>
<text text-anchor="middle" x="447.5" y="-208.69" font-family="Times,serif" font-size="14.00">b</text>
</g>
<!-- a0&#45;&gt;t1 -->
<g id="edge14" class="edge">
<title>a0&#45;&gt;t1</title>
<path fill="none" stroke="black" d="M376.27,-387C369.88,-383.19 362.92,-379.02 356.5,-375.19 327.15,-357.67 293.54,-337.63 270.46,-323.87"/>
<polygon fill="black" stroke="black" points="272.25,-320.85 261.86,-318.74 268.66,-326.87 272.25,-320.85"/>
<text text-anchor="middle" x="329" y="-345.99" font-family="Times,serif" font-size="14.00">a</text>
</g>
<!-- t3 -->
<g id="node6" class="node">
<title>t3</title>
<ellipse fill="none" stroke="black" cx="292.5" cy="-401.29" rx="27" ry="18"/>
<text text-anchor="middle" x="292.5" y="-397.59" font-family="Times,serif" font-size="14.00">t3</text>
</g>
<!-- t3&#45;&gt;t0 -->
<g id="edge8" class="edge">
<title>t3&#45;&gt;t0</title>
<path fill="none" stroke="black" d="M301.09,-384.07C321.93,-342.27 370.05,-229.01 322.5,-154.6 310.63,-136.03 288.05,-125.53 268.73,-119.7"/>
<polygon fill="black" stroke="black" points="269.57,-116.3 259,-117.06 267.74,-123.06 269.57,-116.3"/>
<text text-anchor="middle" x="344.5" y="-258.99" font-family="Times,serif" font-size="14.00">c</text>
</g>
<!-- t3&#45;&gt;t3 -->
<g id="edge9" class="edge">
<title>t3&#45;&gt;t3</title>
<path fill="none" stroke="black" d="M316.11,-410.44C327.47,-411.57 337.5,-408.52 337.5,-401.29 337.5,-396.44 332.97,-393.47 326.56,-392.38"/>
<polygon fill="black" stroke="black" points="326.19,-388.87 316.11,-392.14 326.03,-395.87 326.19,-388.87"/>
<text text-anchor="middle" x="342.5" y="-397.59" font-family="Times,serif" font-size="14.00">b</text>
</g>
<!-- t3&#45;&gt;t1 -->
<g id="edge10" class="edge">
<title>t3&#45;&gt;t1</title>
<path fill="none" stroke="black" d="M283.79,-384.07C276.16,-369.88 264.96,-349.01 256.14,-332.6"/>
<polygon fill="black" stroke="black" points="259.09,-330.69 251.27,-323.54 252.92,-334 259.09,-330.69"/>
<text text-anchor="middle" x="273" y="-345.99" font-family="Times,serif" font-size="14.00">a</text>
</g>
<!-- t1&#45;&gt;sink -->
<g id="edge20" class="edge">
<title>t1&#45;&gt;sink</title>
<path fill="none" stroke="black" d="M256.31,-290.6C267.65,-277.66 283,-257.68 290.5,-237.19 314.42,-171.82 313.84,-88.37 311.57,-46.12"/>
<polygon fill="black" stroke="black" points="315.06,-45.83 310.96,-36.07 308.08,-46.26 315.06,-45.83"/>
<text text-anchor="middle" x="313" y="-158.4" font-family="Times,serif" font-size="14.00">a</text>
</g>
<!-- t1&#45;&gt;t2 -->
<g id="edge4" class="edge">
<title>t1&#45;&gt;t2</title>
<path fill="none" stroke="black" d="M236.85,-324.24C233.07,-334.32 227.51,-347.05 220.5,-357.19 214.87,-365.33 207.56,-373.22 200.52,-379.97"/>
<polygon fill="black" stroke="black" points="198.08,-377.46 193.08,-386.81 202.81,-382.62 198.08,-377.46"/>
<text text-anchor="middle" x="232.5" y="-345.99" font-family="Times,serif" font-size="14.00">c</text>
</g>
<!-- t1&#45;&gt;t4 -->
<g id="edge5" class="edge">
<title>t1&#45;&gt;t4</title>
<path fill="none" stroke="black" d="M240.05,-287.93C238.43,-276.5 236.26,-261.14 234.3,-247.33"/>
<polygon fill="black" stroke="black" points="237.73,-246.58 232.86,-237.17 230.8,-247.56 237.73,-246.58"/>
<text text-anchor="middle" x="241.5" y="-258.99" font-family="Times,serif" font-size="14.00">b</text>
</g>
<!-- t4&#45;&gt;t0 -->
<g id="edge12" class="edge">
<title>t4&#45;&gt;t0</title>
<path fill="none" stroke="black" d="M230.71,-187.53C231.32,-175.39 232.08,-160.41 232.76,-147.06"/>
<polygon fill="black" stroke="black" points="236.27,-146.95 233.28,-136.79 229.28,-146.6 236.27,-146.95"/>
<text text-anchor="middle" x="236.5" y="-158.4" font-family="Times,serif" font-size="14.00">b</text>
</g>
<!-- t4&#45;&gt;t0 -->
<g id="edge13" class="edge">
<title>t4&#45;&gt;t0</title>
<path fill="none" stroke="black" d="M223.16,-188.16C221.14,-177.87 219.82,-165.62 221.5,-154.6 221.96,-151.54 222.61,-148.4 223.36,-145.28"/>
<polygon fill="black" stroke="black" points="226.77,-146.07 226.08,-135.5 220.03,-144.2 226.77,-146.07"/>
<text text-anchor="middle" x="225.5" y="-158.4" font-family="Times,serif" font-size="14.00">c</text>
</g>
<!-- t4&#45;&gt;t4 -->
<g id="edge11" class="edge">
<title>t4&#45;&gt;t4</title>
<path fill="none" stroke="black" d="M252.83,-221.62C263.27,-222.5 272.3,-219.43 272.3,-212.39 272.3,-207.89 268.59,-205.01 263.18,-203.75"/>
<polygon fill="black" stroke="black" points="263.01,-200.24 252.83,-203.17 262.62,-207.22 263.01,-200.24"/>
<text text-anchor="middle" x="276.8" y="-208.69" font-family="Times,serif" font-size="14.00">a</text>
</g>
</g>
</svg>
